<svg xmlns="http://www.w3.org/2000/svg" viewBox="0 0 1280 496" preserveAspectRatio="xMidYMid" width="1280" height="496" xmlns:xlink="http://www.w3.org/1999/xlink" style="shape-rendering:auto;display:block;background-position-x:0%;background-position-y:0%;background-size:auto;background-origin:padding-box;background-clip:border-box;background:scroll rgb(255, 255, 255) none  repeat;width:1280px;height:496px;;animation:none"><g><linearGradient y2="1" y1="0" x2="0" x1="0" id="lg-9l2f9byh50a-0"><stop offset="0" stop-color="#feebe2"></stop>

  
<stop offset="1" stop-color="#fcc5c0"></stop></linearGradient>
<linearGradient y2="1" y1="0" x2="0" x1="0" id="lg-9l2f9byh50a-1"><stop offset="0" stop-color="#fcc5c0"></stop>

  
<stop offset="1" stop-color="#fa9fb5"></stop></linearGradient>
<linearGradient y2="1" y1="0" x2="0" x1="0" id="lg-9l2f9byh50a-2"><stop offset="0" stop-color="#fa9fb5"></stop>

  
<stop offset="1" stop-color="#f768a1"></stop></linearGradient>
<linearGradient y2="1" y1="0" x2="0" x1="0" id="lg-9l2f9byh50a-3"><stop offset="0" stop-color="#f768a1"></stop>

  
<stop offset="1" stop-color="#dd3497"></stop></linearGradient>
<linearGradient y2="1" y1="0" x2="0" x1="0" id="lg-9l2f9byh50a-4"><stop offset="0" stop-color="#dd3497"></stop>

  
<stop offset="1" stop-color="#ae017e"></stop></linearGradient>
<linearGradient y2="1" y1="0" x2="0" x1="0" id="lg-9l2f9byh50a-5"><stop offset="0" stop-color="#ae017e"></stop>

  
<stop offset="1" stop-color="#7a0177"></stop></linearGradient>
<linearGradient y2="1" y1="0" x2="0" x1="0" id="lg-9l2f9byh50a-6"><stop offset="0" stop-color="#7a0177"></stop>

  
<stop offset="1" stop-color="#feebe2"></stop></linearGradient>
<path fill-opacity="0.75" fill="url(#lg-9l2f9byh50a-0)" d="M 0 0 L 0 529.45 Q 160 487.09 320 456.67 T 640 357.24 T 960 356.13 T 1280 272.59 L 1280 0 Z" style="fill:url('#lg-9l2f9byh50a-0');;animation:none"></path>
<path fill-opacity="0.75" fill="url(#lg-9l2f9byh50a-1)" d="M 0 0 L 0 458.419 Q 160 407.574 320 376.827 T 640 299.75 T 960 309.392 T 1280 247.504 L 1280 0 Z" style="fill:url('#lg-9l2f9byh50a-1');;animation:none"></path>
<path fill-opacity="0.75" fill="url(#lg-9l2f9byh50a-2)" d="M 0 0 L 0 338.39 Q 160 355.998 320 322.568 T 640 322.429 T 960 232.689 T 1280 180.983 L 1280 0 Z" style="fill:url('#lg-9l2f9byh50a-2');;animation:none"></path>
<path fill-opacity="0.75" fill="url(#lg-9l2f9byh50a-3)" d="M 0 0 L 0 326.279 Q 160 331.092 320 305.916 T 640 289.247 T 960 186.233 T 1280 140.332 L 1280 0 Z" style="fill:url('#lg-9l2f9byh50a-3');;animation:none"></path>
<path fill-opacity="0.75" fill="url(#lg-9l2f9byh50a-4)" d="M 0 0 L 0 278.128 Q 160 251.954 320 209.116 T 640 245.422 T 960 203.456 T 1280 125.192 L 1280 0 Z" style="fill:url('#lg-9l2f9byh50a-4');;animation:none"></path>
<path fill-opacity="0.75" fill="url(#lg-9l2f9byh50a-5)" d="M 0 0 L 0 227.841 Q 160 201.555 320 174.231 T 640 122.544 T 960 115.613 T 1280 133.143 L 1280 0 Z" style="fill:url('#lg-9l2f9byh50a-5');;animation:none"></path>
<path fill-opacity="0.75" fill="url(#lg-9l2f9byh50a-6)" d="M 0 0 L 0 142.416 Q 160 89.0641 320 57.3541 T 640 104.476 T 960 114.627 T 1280 27.3878 L 1280 0 Z" style="fill:url('#lg-9l2f9byh50a-6');;animation:none"></path>
<g></g></g><!-- [ldio] generated by https://loading.io --></svg>